<mxfile host="Electron" agent="Mozilla/5.0 (Macintosh; Intel Mac OS X 10_15_7) AppleWebKit/537.36 (KHTML, like Gecko) draw.io/27.0.5 Chrome/134.0.6998.205 Electron/35.3.0 Safari/537.36" version="27.0.5">
  <diagram name="Seite-1" id="n2Lcawf0PaWns3BbwVNj">
    <mxGraphModel dx="1018" dy="748" grid="1" gridSize="10" guides="1" tooltips="1" connect="1" arrows="1" fold="1" page="1" pageScale="1" pageWidth="827" pageHeight="1169" math="0" shadow="0">
      <root>
        <mxCell id="0" />
        <mxCell id="1" parent="0" />
        <mxCell id="6UwIt0Ui8ttYCBpo_i-_-1" value="Lehrerkraft" style="text;html=1;align=center;verticalAlign=middle;whiteSpace=wrap;rounded=0;fontSize=18;" vertex="1" parent="1">
          <mxGeometry x="90" y="120" width="100" height="30" as="geometry" />
        </mxCell>
        <mxCell id="6UwIt0Ui8ttYCBpo_i-_-3" style="edgeStyle=orthogonalEdgeStyle;rounded=0;orthogonalLoop=1;jettySize=auto;html=1;" edge="1" parent="1" source="6UwIt0Ui8ttYCBpo_i-_-2" target="6UwIt0Ui8ttYCBpo_i-_-4">
          <mxGeometry relative="1" as="geometry">
            <mxPoint x="300" y="190" as="targetPoint" />
          </mxGeometry>
        </mxCell>
        <mxCell id="6UwIt0Ui8ttYCBpo_i-_-2" value="Seite öffnen" style="rounded=0;whiteSpace=wrap;html=1;" vertex="1" parent="1">
          <mxGeometry x="40" y="160" width="120" height="60" as="geometry" />
        </mxCell>
        <mxCell id="6UwIt0Ui8ttYCBpo_i-_-5" style="edgeStyle=orthogonalEdgeStyle;rounded=0;orthogonalLoop=1;jettySize=auto;html=1;" edge="1" parent="1" source="6UwIt0Ui8ttYCBpo_i-_-4" target="6UwIt0Ui8ttYCBpo_i-_-6">
          <mxGeometry relative="1" as="geometry">
            <mxPoint x="490" y="190" as="targetPoint" />
          </mxGeometry>
        </mxCell>
        <mxCell id="6UwIt0Ui8ttYCBpo_i-_-4" value="Anmelde Bildschirm" style="rounded=0;whiteSpace=wrap;html=1;" vertex="1" parent="1">
          <mxGeometry x="180" y="160" width="120" height="60" as="geometry" />
        </mxCell>
        <mxCell id="6UwIt0Ui8ttYCBpo_i-_-8" value="" style="edgeStyle=orthogonalEdgeStyle;rounded=0;orthogonalLoop=1;jettySize=auto;html=1;" edge="1" parent="1" source="6UwIt0Ui8ttYCBpo_i-_-6" target="6UwIt0Ui8ttYCBpo_i-_-7">
          <mxGeometry relative="1" as="geometry" />
        </mxCell>
        <mxCell id="6UwIt0Ui8ttYCBpo_i-_-6" value="Automatische Weiterleitung zur &quot;Admin Page&quot;" style="rounded=0;whiteSpace=wrap;html=1;" vertex="1" parent="1">
          <mxGeometry x="320" y="160" width="120" height="60" as="geometry" />
        </mxCell>
        <mxCell id="6UwIt0Ui8ttYCBpo_i-_-10" value="" style="edgeStyle=orthogonalEdgeStyle;rounded=0;orthogonalLoop=1;jettySize=auto;html=1;" edge="1" parent="1" source="6UwIt0Ui8ttYCBpo_i-_-7" target="6UwIt0Ui8ttYCBpo_i-_-9">
          <mxGeometry relative="1" as="geometry" />
        </mxCell>
        <mxCell id="6UwIt0Ui8ttYCBpo_i-_-7" value="Zu sehen ist eine liste aus allen derzeit geborgten geräten und räume&lt;div&gt;&lt;br&gt;&lt;/div&gt;&lt;div&gt;Mit einer Suchleiste und einem dropdown für kategorien&lt;/div&gt;&lt;div&gt;&lt;br&gt;&lt;/div&gt;&lt;div&gt;Design soll eher primitiv aber sinnvoll sein&lt;/div&gt;" style="whiteSpace=wrap;html=1;rounded=0;" vertex="1" parent="1">
          <mxGeometry x="470" y="75" width="130" height="230" as="geometry" />
        </mxCell>
        <mxCell id="6UwIt0Ui8ttYCBpo_i-_-11" style="edgeStyle=orthogonalEdgeStyle;rounded=0;orthogonalLoop=1;jettySize=auto;html=1;" edge="1" parent="1" source="6UwIt0Ui8ttYCBpo_i-_-9" target="6UwIt0Ui8ttYCBpo_i-_-12">
          <mxGeometry relative="1" as="geometry">
            <mxPoint x="690" y="350" as="targetPoint" />
          </mxGeometry>
        </mxCell>
        <mxCell id="6UwIt0Ui8ttYCBpo_i-_-9" value="Alle noch nicht akzeptierten Ausborge-Anfragen sind immer als erstes gelistet&lt;div&gt;&lt;br&gt;&lt;/div&gt;&lt;div&gt;Bei die anderen steht welche Lehrkraft zuständig ist&lt;/div&gt;" style="whiteSpace=wrap;html=1;rounded=0;" vertex="1" parent="1">
          <mxGeometry x="630" y="110" width="120" height="160" as="geometry" />
        </mxCell>
        <mxCell id="6UwIt0Ui8ttYCBpo_i-_-12" value="Lehrkraft muss auf Akzeptieren Drücken um zu einer Ausborgung zugeteilt zu werden&lt;div&gt;&lt;br&gt;&lt;/div&gt;&lt;div&gt;Die Lehrkraft ist ab jetzt dafür verantwortlich&lt;/div&gt;" style="rounded=0;whiteSpace=wrap;html=1;" vertex="1" parent="1">
          <mxGeometry x="630" y="320" width="120" height="150" as="geometry" />
        </mxCell>
        <mxCell id="6UwIt0Ui8ttYCBpo_i-_-14" value="Schüler" style="text;html=1;align=center;verticalAlign=middle;whiteSpace=wrap;rounded=0;fontSize=18;" vertex="1" parent="1">
          <mxGeometry x="80" y="470" width="100" height="30" as="geometry" />
        </mxCell>
        <mxCell id="6UwIt0Ui8ttYCBpo_i-_-24" style="edgeStyle=orthogonalEdgeStyle;rounded=0;orthogonalLoop=1;jettySize=auto;html=1;" edge="1" parent="1" source="6UwIt0Ui8ttYCBpo_i-_-16" target="6UwIt0Ui8ttYCBpo_i-_-17">
          <mxGeometry relative="1" as="geometry" />
        </mxCell>
        <mxCell id="6UwIt0Ui8ttYCBpo_i-_-16" value="Seite öffnen" style="rounded=0;whiteSpace=wrap;html=1;" vertex="1" parent="1">
          <mxGeometry x="40" y="540" width="120" height="60" as="geometry" />
        </mxCell>
        <mxCell id="6UwIt0Ui8ttYCBpo_i-_-18" style="edgeStyle=orthogonalEdgeStyle;rounded=0;orthogonalLoop=1;jettySize=auto;html=1;" edge="1" parent="1" source="6UwIt0Ui8ttYCBpo_i-_-17" target="6UwIt0Ui8ttYCBpo_i-_-19">
          <mxGeometry relative="1" as="geometry">
            <mxPoint x="350" y="570" as="targetPoint" />
          </mxGeometry>
        </mxCell>
        <mxCell id="6UwIt0Ui8ttYCBpo_i-_-17" value="Anmelde Bildschirm" style="rounded=0;whiteSpace=wrap;html=1;" vertex="1" parent="1">
          <mxGeometry x="180" y="540" width="120" height="60" as="geometry" />
        </mxCell>
        <mxCell id="6UwIt0Ui8ttYCBpo_i-_-20" style="edgeStyle=orthogonalEdgeStyle;rounded=0;orthogonalLoop=1;jettySize=auto;html=1;" edge="1" parent="1" source="6UwIt0Ui8ttYCBpo_i-_-19" target="6UwIt0Ui8ttYCBpo_i-_-21">
          <mxGeometry relative="1" as="geometry">
            <mxPoint x="460" y="570" as="targetPoint" />
          </mxGeometry>
        </mxCell>
        <mxCell id="6UwIt0Ui8ttYCBpo_i-_-19" value="Hauptseite" style="rounded=0;whiteSpace=wrap;html=1;" vertex="1" parent="1">
          <mxGeometry x="320" y="540" width="120" height="60" as="geometry" />
        </mxCell>
        <mxCell id="6UwIt0Ui8ttYCBpo_i-_-22" style="edgeStyle=orthogonalEdgeStyle;rounded=0;orthogonalLoop=1;jettySize=auto;html=1;" edge="1" parent="1" source="6UwIt0Ui8ttYCBpo_i-_-21" target="6UwIt0Ui8ttYCBpo_i-_-23">
          <mxGeometry relative="1" as="geometry">
            <mxPoint x="630" y="570" as="targetPoint" />
          </mxGeometry>
        </mxCell>
        <mxCell id="6UwIt0Ui8ttYCBpo_i-_-21" value="Aussuchen von Raum*e/Gegenstand*e" style="rounded=0;whiteSpace=wrap;html=1;" vertex="1" parent="1">
          <mxGeometry x="460" y="540" width="130" height="60" as="geometry" />
        </mxCell>
        <mxCell id="6UwIt0Ui8ttYCBpo_i-_-25" style="edgeStyle=orthogonalEdgeStyle;rounded=0;orthogonalLoop=1;jettySize=auto;html=1;" edge="1" parent="1" source="6UwIt0Ui8ttYCBpo_i-_-23" target="6UwIt0Ui8ttYCBpo_i-_-26">
          <mxGeometry relative="1" as="geometry">
            <mxPoint x="670" y="730" as="targetPoint" />
            <Array as="points">
              <mxPoint x="670" y="678" />
              <mxPoint x="671" y="678" />
            </Array>
          </mxGeometry>
        </mxCell>
        <mxCell id="6UwIt0Ui8ttYCBpo_i-_-23" value="Raum/Gegenstand wird in den Warenkorb gespeichert&lt;div&gt;(auch auf Server)&lt;/div&gt;" style="rounded=0;whiteSpace=wrap;html=1;" vertex="1" parent="1">
          <mxGeometry x="610" y="515" width="120" height="110" as="geometry" />
        </mxCell>
        <mxCell id="6UwIt0Ui8ttYCBpo_i-_-27" style="edgeStyle=orthogonalEdgeStyle;rounded=0;orthogonalLoop=1;jettySize=auto;html=1;" edge="1" parent="1" source="6UwIt0Ui8ttYCBpo_i-_-26" target="6UwIt0Ui8ttYCBpo_i-_-28">
          <mxGeometry relative="1" as="geometry">
            <mxPoint x="580" y="690" as="targetPoint" />
          </mxGeometry>
        </mxCell>
        <mxCell id="6UwIt0Ui8ttYCBpo_i-_-26" value="Bei drück auf Warenkorb Icon wird Warenkorb Dialog geöffnet" style="rounded=0;whiteSpace=wrap;html=1;" vertex="1" parent="1">
          <mxGeometry x="610" y="660" width="120" height="60" as="geometry" />
        </mxCell>
        <mxCell id="6UwIt0Ui8ttYCBpo_i-_-29" style="edgeStyle=orthogonalEdgeStyle;rounded=0;orthogonalLoop=1;jettySize=auto;html=1;" edge="1" parent="1" source="6UwIt0Ui8ttYCBpo_i-_-28" target="6UwIt0Ui8ttYCBpo_i-_-30">
          <mxGeometry relative="1" as="geometry">
            <mxPoint x="420" y="690" as="targetPoint" />
          </mxGeometry>
        </mxCell>
        <mxCell id="6UwIt0Ui8ttYCBpo_i-_-28" value="Schüler muss auf anfrage*n versenden drücken" style="rounded=0;whiteSpace=wrap;html=1;" vertex="1" parent="1">
          <mxGeometry x="465" y="660" width="120" height="60" as="geometry" />
        </mxCell>
        <mxCell id="6UwIt0Ui8ttYCBpo_i-_-30" value="andere Ansicht kann geöffnet werden mit derzeit ausgeborgte Items des Users&amp;nbsp;" style="rounded=0;whiteSpace=wrap;html=1;" vertex="1" parent="1">
          <mxGeometry x="320" y="660" width="120" height="60" as="geometry" />
        </mxCell>
      </root>
    </mxGraphModel>
  </diagram>
</mxfile>
